<svg id="visual" viewBox="0 0 900 600" width="900" height="600" xmlns="http://www.w3.org/2000/svg" xmlns:xlink="http://www.w3.org/1999/xlink" version="1.1"><g transform="translate(416.7261987016501 253.3590599626193)"><path d="M190 -187.3C263.9 -164.4 353.5 -121.3 355.2 -68.9C356.9 -16.6 270.7 45 216.8 112.9C163 180.9 141.5 255.4 93.8 284.3C46.1 313.2 -27.9 296.6 -91.2 266.7C-154.6 236.7 -207.2 193.3 -244.8 137C-282.5 80.7 -305.2 11.5 -274 -27.9C-242.7 -67.3 -157.5 -76.7 -102.9 -102.9C-48.2 -129.1 -24.1 -172.1 17 -192.3C58.1 -212.5 116.1 -210.1 190 -187.3" fill="#02a2ff"></path></g></svg>